<svg width="173" height="173" viewBox="0 0 173 173" fill="none" xmlns="http://www.w3.org/2000/svg">
<path d="M151.36 51.6073C157.49 48.3371 159.878 40.6463 155.752 35.056C150.651 28.1449 144.533 22.0147 137.586 16.8836C127.255 9.25311 115.351 4.02448 102.742 1.579C90.1338 -0.866494 77.1385 -0.467194 64.7039 2.74778C52.2693 5.96275 40.7089 11.9123 30.8659 20.1627C21.0228 28.4131 13.1451 38.7562 7.80719 50.4379C2.46932 62.1196 -0.194147 74.8454 0.011012 87.6872C0.216171 100.529 3.28478 113.163 8.99308 124.669C12.8316 132.405 17.7987 139.5 23.7124 145.73C28.4959 150.769 36.4855 149.762 40.7764 144.297V144.297C45.0673 138.832 43.9899 130.99 39.517 125.673C36.3889 121.955 33.7054 117.865 31.5325 113.486C27.4883 105.334 25.3143 96.3834 25.1689 87.2853C25.0236 78.1872 26.9106 69.1713 30.6923 60.8951C34.4741 52.6189 40.0552 45.2911 47.0288 39.4459C54.0024 33.6007 62.1926 29.3856 71.0022 27.1079C79.8118 24.8301 89.0187 24.5472 97.9515 26.2798C106.884 28.0124 115.318 31.7167 122.637 37.1227C126.57 40.0274 130.128 43.384 133.242 47.1136C137.696 52.4466 145.229 54.8775 151.36 51.6073V51.6073Z" fill="url(#paint0_linear_7_6)"/>
<path d="M21.2576 121.01C15.1272 124.28 12.7396 131.971 16.8655 137.561C21.9663 144.472 28.0844 150.602 35.0315 155.734C45.3625 163.364 57.2663 168.593 69.8749 171.038C82.4834 173.484 95.4787 173.084 107.913 169.869C120.348 166.654 131.908 160.705 141.751 152.454C151.594 144.204 159.472 133.861 164.81 122.179C170.148 110.498 172.811 97.7718 172.606 84.9299C172.401 72.0881 169.332 59.4539 163.624 47.9487C159.786 40.212 154.819 33.117 148.905 26.8873C144.121 21.8482 136.132 22.8555 131.841 28.3203V28.3203C127.55 33.7851 128.627 41.6274 133.1 46.9442C136.228 50.6625 138.912 54.7519 141.085 59.1316C145.129 67.2827 147.303 76.2337 147.448 85.3319C147.594 94.43 145.707 103.446 141.925 111.722C138.143 119.998 132.562 127.326 125.588 133.171C118.615 139.016 110.425 143.232 101.615 145.509C92.8054 147.787 83.5985 148.07 74.6657 146.337C65.7329 144.605 57.2994 140.9 49.9801 135.494C46.0474 132.59 42.4897 129.233 39.375 125.504C34.9214 120.171 27.3879 117.74 21.2576 121.01V121.01Z" fill="url(#paint1_linear_7_6)"/>
<defs>
<linearGradient id="paint0_linear_7_6" x1="86.3086" y1="0" x2="86.3086" y2="172.617" gradientUnits="userSpaceOnUse">
<stop stop-color="#020887"/>
<stop offset="1" stop-color="#020887" stop-opacity="0"/>
</linearGradient>
<linearGradient id="paint1_linear_7_6" x1="86.3086" y1="172.617" x2="86.3086" y2="4.57764e-05" gradientUnits="userSpaceOnUse">
<stop stop-color="#020887"/>
<stop offset="1" stop-color="#23288B" stop-opacity="0"/>
</linearGradient>
</defs>
</svg>
