<svg width="700" height="235" viewBox="0 0 700 235" fill="none" xmlns="http://www.w3.org/2000/svg">
<path d="M265.171 175.554C253.663 175.554 243.594 173.022 234.963 167.958C226.447 162.78 219.83 155.53 215.112 146.209C210.509 136.772 208.207 125.725 208.207 113.066C208.207 103.515 209.531 94.9413 212.178 87.3462C214.824 79.636 218.622 73.0765 223.57 67.6678C228.519 62.1441 234.503 57.9437 241.522 55.0668C248.542 52.1898 256.425 50.7514 265.171 50.7514C276.794 50.7514 286.863 53.2831 295.379 58.3465C303.895 63.4099 310.454 70.6023 315.057 79.9237C319.776 89.245 322.135 100.235 322.135 112.894C322.135 122.445 320.811 131.076 318.164 138.786C315.518 146.496 311.663 153.113 306.599 158.637C301.651 164.161 295.667 168.361 288.647 171.238C281.627 174.115 273.802 175.554 265.171 175.554ZM265.171 160.018C273.226 160.018 280.074 158.177 285.712 154.494C291.466 150.812 295.839 145.461 298.831 138.441C301.938 131.421 303.492 122.963 303.492 113.066C303.492 98.2211 300.155 86.7133 293.48 78.5427C286.806 70.3722 277.369 66.2869 265.171 66.2869C257.116 66.2869 250.211 68.1282 244.457 71.8107C238.818 75.3781 234.445 80.6717 231.338 87.6914C228.346 94.7112 226.85 103.169 226.85 113.066C226.85 127.796 230.187 139.304 236.862 147.59C243.651 155.875 253.088 160.018 265.171 160.018ZM371.398 175.554C362.422 175.554 355.632 172.964 351.029 167.786C346.541 162.492 344.297 154.897 344.297 145V59.9001C344.297 57.0231 345.045 54.8366 346.541 53.3406C348.037 51.8446 350.166 51.0966 352.928 51.0966C355.69 51.0966 357.819 51.8446 359.315 53.3406C360.926 54.8366 361.731 57.0231 361.731 59.9001V143.965C361.731 149.719 362.882 154.034 365.184 156.911C367.6 159.673 371.053 161.054 375.541 161.054C376.576 161.054 377.497 161.054 378.303 161.054C379.108 160.939 379.914 160.824 380.719 160.708C382.1 160.593 383.078 160.996 383.654 161.917C384.229 162.722 384.517 164.449 384.517 167.095C384.517 169.512 383.999 171.411 382.963 172.792C381.928 174.058 380.259 174.863 377.957 175.208C376.922 175.323 375.828 175.381 374.678 175.381C373.527 175.496 372.434 175.554 371.398 175.554ZM424.161 175.554C415.185 175.554 408.395 172.964 403.792 167.786C399.304 162.492 397.06 154.897 397.06 145V59.9001C397.06 57.0231 397.808 54.8366 399.304 53.3406C400.8 51.8446 402.929 51.0966 405.691 51.0966C408.453 51.0966 410.582 51.8446 412.078 53.3406C413.689 54.8366 414.494 57.0231 414.494 59.9001V143.965C414.494 149.719 415.645 154.034 417.947 156.911C420.363 159.673 423.816 161.054 428.304 161.054C429.339 161.054 430.26 161.054 431.066 161.054C431.871 160.939 432.677 160.824 433.482 160.708C434.863 160.593 435.841 160.996 436.417 161.917C436.992 162.722 437.28 164.449 437.28 167.095C437.28 169.512 436.762 171.411 435.726 172.792C434.69 174.058 433.022 174.863 430.72 175.208C429.685 175.323 428.591 175.381 427.441 175.381C426.29 175.496 425.197 175.554 424.161 175.554ZM458.454 175.036C455.692 175.036 453.563 174.23 452.067 172.619C450.571 170.893 449.823 168.534 449.823 165.542V98.2211C449.823 95.229 450.571 92.9275 452.067 91.3164C453.563 89.7053 455.692 88.8997 458.454 88.8997C461.216 88.8997 463.344 89.7053 464.84 91.3164C466.452 92.9275 467.257 95.229 467.257 98.2211V165.542C467.257 168.534 466.509 170.893 465.013 172.619C463.517 174.23 461.331 175.036 458.454 175.036ZM458.454 70.9476C455.001 70.9476 452.297 70.0845 450.341 68.3583C448.499 66.6321 447.579 64.2155 447.579 61.1084C447.579 57.8862 448.499 55.4696 450.341 53.8585C452.297 52.1323 455.001 51.2692 458.454 51.2692C461.906 51.2692 464.553 52.1323 466.394 53.8585C468.35 55.4696 469.329 57.8862 469.329 61.1084C469.329 64.2155 468.35 66.6321 466.394 68.3583C464.553 70.0845 461.906 70.9476 458.454 70.9476ZM538.52 175.208C536.218 175.208 534.377 174.69 532.996 173.655C531.615 172.619 530.809 171.238 530.579 169.512C530.349 167.786 530.694 165.829 531.615 163.643L578.394 58.6917C579.545 55.9299 580.983 53.9735 582.71 52.8228C584.551 51.672 586.565 51.0966 588.751 51.0966C590.823 51.0966 592.721 51.672 594.448 52.8228C596.289 53.9735 597.785 55.9299 598.936 58.6917L645.715 163.643C646.751 165.829 647.153 167.843 646.923 169.685C646.693 171.411 645.945 172.792 644.679 173.827C643.413 174.748 641.63 175.208 639.328 175.208C636.796 175.208 634.783 174.575 633.286 173.31C631.79 172.044 630.467 170.087 629.316 167.441L617.233 139.477L625.346 144.31H551.811L559.752 139.477L547.841 167.441C546.69 170.202 545.424 172.216 544.043 173.482C542.662 174.633 540.821 175.208 538.52 175.208ZM588.406 72.1559L562.341 133.953L558.025 129.81H618.959L614.989 133.953L588.751 72.1559H588.406ZM675.289 175.208C672.412 175.208 670.168 174.403 668.557 172.792C667.061 171.181 666.313 168.937 666.313 166.06V60.2453C666.313 57.2533 667.061 55.0092 668.557 53.5132C670.168 51.9021 672.412 51.0966 675.289 51.0966C678.166 51.0966 680.353 51.9021 681.849 53.5132C683.46 55.0092 684.265 57.2533 684.265 60.2453V166.06C684.265 168.937 683.517 171.181 682.021 172.792C680.525 174.403 678.281 175.208 675.289 175.208Z" fill="white"/>
<g filter="url(#filter0_d_5_11)">
<rect x="4" y="29" width="174" height="174" rx="20" fill="url(#paint0_linear_5_11)" shape-rendering="crispEdges"/>
</g>
<path d="M148.855 85.0774C154.372 82.1342 156.521 75.2126 152.807 70.1813C148.217 63.9613 142.71 58.4441 136.458 53.8261C127.16 46.9587 116.447 42.2529 105.099 40.052C93.7513 37.851 82.0555 38.2104 70.8643 41.1039C59.6732 43.9973 49.2689 49.352 40.4101 56.7773C31.5513 64.2026 24.4614 73.5115 19.6573 84.025C14.8532 94.5385 12.4561 105.992 12.6408 117.549C12.8254 129.107 15.5872 140.478 20.7246 150.833C24.1793 157.795 28.6497 164.181 33.972 169.788C38.2772 174.323 45.4678 173.416 49.3296 168.498V168.498C53.1915 163.58 52.2218 156.522 48.1962 151.737C45.3808 148.39 42.9658 144.71 41.0101 140.768C37.3703 133.432 35.4137 125.376 35.2829 117.188C35.1521 108.999 36.8504 100.885 40.2539 93.4365C43.6575 85.9879 48.6806 79.3928 54.9568 74.1322C61.233 68.8715 68.6042 65.0779 76.5328 63.0279C84.4615 60.978 92.7476 60.7234 100.787 62.2827C108.827 63.842 116.417 67.1759 123.004 72.0413C126.544 74.6555 129.746 77.6764 132.549 81.0331C136.557 85.8328 143.337 88.0206 148.855 85.0774V85.0774Z" fill="url(#paint1_linear_5_11)"/>
<path d="M31.7627 147.54C26.2454 150.483 24.0965 157.405 27.8098 162.436C32.4005 168.656 37.9068 174.173 44.1592 178.791C53.4572 185.659 64.1706 190.364 75.5182 192.565C86.8659 194.766 98.5617 194.407 109.753 191.513C120.944 188.62 131.348 183.265 140.207 175.84C149.066 168.415 156.156 159.106 160.96 148.592C165.764 138.079 168.161 126.625 167.976 115.068C167.792 103.51 165.03 92.1394 159.893 81.7847C156.438 74.8217 151.968 68.4362 146.645 62.8295C142.34 58.2942 135.149 59.2009 131.288 64.1191V64.1191C127.426 69.0374 128.395 76.0955 132.421 80.8806C135.236 84.2271 137.651 87.9076 139.607 91.8493C143.247 99.1853 145.203 107.241 145.334 115.43C145.465 123.618 143.767 131.732 140.363 139.181C136.96 146.629 131.937 153.224 125.66 158.485C119.384 163.746 112.013 167.539 104.084 169.589C96.1557 171.639 87.8695 171.894 79.83 170.335C71.7905 168.775 64.2003 165.441 57.6129 160.576C54.0735 157.962 50.8716 154.941 48.0684 151.584C44.0601 146.784 37.28 144.597 31.7627 147.54V147.54Z" fill="url(#paint2_linear_5_11)"/>
<defs>
<filter id="filter0_d_5_11" x="0" y="29" width="182" height="182" filterUnits="userSpaceOnUse" color-interpolation-filters="sRGB">
<feFlood flood-opacity="0" result="BackgroundImageFix"/>
<feColorMatrix in="SourceAlpha" type="matrix" values="0 0 0 0 0 0 0 0 0 0 0 0 0 0 0 0 0 0 127 0" result="hardAlpha"/>
<feOffset dy="4"/>
<feGaussianBlur stdDeviation="2"/>
<feComposite in2="hardAlpha" operator="out"/>
<feColorMatrix type="matrix" values="0 0 0 0 0 0 0 0 0 0 0 0 0 0 0 0 0 0 0.25 0"/>
<feBlend mode="normal" in2="BackgroundImageFix" result="effect1_dropShadow_5_11"/>
<feBlend mode="normal" in="SourceGraphic" in2="effect1_dropShadow_5_11" result="shape"/>
</filter>
<linearGradient id="paint0_linear_5_11" x1="178" y1="29" x2="-309" y2="484.5" gradientUnits="userSpaceOnUse">
<stop stop-color="#020887"/>
<stop offset="1" stop-color="#23288B" stop-opacity="0"/>
</linearGradient>
<linearGradient id="paint1_linear_5_11" x1="90.3086" y1="38.6309" x2="90.3086" y2="193.986" gradientUnits="userSpaceOnUse">
<stop stop-color="white"/>
<stop offset="1" stop-color="white" stop-opacity="0"/>
</linearGradient>
<linearGradient id="paint2_linear_5_11" x1="90.3086" y1="193.986" x2="90.3086" y2="38.6309" gradientUnits="userSpaceOnUse">
<stop stop-color="white"/>
<stop offset="1" stop-color="white" stop-opacity="0"/>
</linearGradient>
</defs>
</svg>
