<svg width="696" height="235" viewBox="0 0 696 235" fill="none" xmlns="http://www.w3.org/2000/svg">
<path d="M261.171 175.554C249.663 175.554 239.594 173.022 230.963 167.958C222.447 162.78 215.83 155.53 211.112 146.209C206.509 136.772 204.207 125.725 204.207 113.066C204.207 103.515 205.531 94.9413 208.178 87.3462C210.824 79.636 214.622 73.0765 219.57 67.6678C224.519 62.1441 230.503 57.9437 237.522 55.0668C244.542 52.1898 252.425 50.7514 261.171 50.7514C272.794 50.7514 282.863 53.2831 291.379 58.3465C299.895 63.4099 306.454 70.6023 311.057 79.9237C315.776 89.245 318.135 100.235 318.135 112.894C318.135 122.445 316.811 131.076 314.164 138.786C311.518 146.496 307.663 153.113 302.599 158.637C297.651 164.161 291.667 168.361 284.647 171.238C277.627 174.115 269.802 175.554 261.171 175.554ZM261.171 160.018C269.226 160.018 276.074 158.177 281.712 154.494C287.466 150.812 291.839 145.461 294.831 138.441C297.938 131.421 299.492 122.963 299.492 113.066C299.492 98.2211 296.155 86.7133 289.48 78.5427C282.806 70.3722 273.369 66.2869 261.171 66.2869C253.116 66.2869 246.211 68.1282 240.457 71.8107C234.818 75.3781 230.445 80.6717 227.338 87.6914C224.346 94.7112 222.85 103.169 222.85 113.066C222.85 127.796 226.187 139.304 232.862 147.59C239.651 155.875 249.088 160.018 261.171 160.018ZM367.398 175.554C358.422 175.554 351.632 172.964 347.029 167.786C342.541 162.492 340.297 154.897 340.297 145V59.9001C340.297 57.0231 341.045 54.8366 342.541 53.3406C344.037 51.8446 346.166 51.0966 348.928 51.0966C351.69 51.0966 353.819 51.8446 355.315 53.3406C356.926 54.8366 357.731 57.0231 357.731 59.9001V143.965C357.731 149.719 358.882 154.034 361.184 156.911C363.6 159.673 367.053 161.054 371.541 161.054C372.576 161.054 373.497 161.054 374.303 161.054C375.108 160.939 375.914 160.824 376.719 160.708C378.1 160.593 379.078 160.996 379.654 161.917C380.229 162.722 380.517 164.449 380.517 167.095C380.517 169.512 379.999 171.411 378.963 172.792C377.928 174.058 376.259 174.863 373.957 175.208C372.922 175.323 371.828 175.381 370.678 175.381C369.527 175.496 368.434 175.554 367.398 175.554ZM420.161 175.554C411.185 175.554 404.395 172.964 399.792 167.786C395.304 162.492 393.06 154.897 393.06 145V59.9001C393.06 57.0231 393.808 54.8366 395.304 53.3406C396.8 51.8446 398.929 51.0966 401.691 51.0966C404.453 51.0966 406.582 51.8446 408.078 53.3406C409.689 54.8366 410.494 57.0231 410.494 59.9001V143.965C410.494 149.719 411.645 154.034 413.947 156.911C416.363 159.673 419.816 161.054 424.304 161.054C425.339 161.054 426.26 161.054 427.066 161.054C427.871 160.939 428.677 160.824 429.482 160.708C430.863 160.593 431.841 160.996 432.417 161.917C432.992 162.722 433.28 164.449 433.28 167.095C433.28 169.512 432.762 171.411 431.726 172.792C430.69 174.058 429.022 174.863 426.72 175.208C425.685 175.323 424.591 175.381 423.441 175.381C422.29 175.496 421.197 175.554 420.161 175.554ZM454.454 175.036C451.692 175.036 449.563 174.23 448.067 172.619C446.571 170.893 445.823 168.534 445.823 165.542V98.2211C445.823 95.229 446.571 92.9275 448.067 91.3164C449.563 89.7053 451.692 88.8997 454.454 88.8997C457.216 88.8997 459.344 89.7053 460.84 91.3164C462.452 92.9275 463.257 95.229 463.257 98.2211V165.542C463.257 168.534 462.509 170.893 461.013 172.619C459.517 174.23 457.331 175.036 454.454 175.036ZM454.454 70.9476C451.001 70.9476 448.297 70.0845 446.341 68.3583C444.499 66.6321 443.579 64.2155 443.579 61.1084C443.579 57.8862 444.499 55.4696 446.341 53.8585C448.297 52.1323 451.001 51.2692 454.454 51.2692C457.906 51.2692 460.553 52.1323 462.394 53.8585C464.35 55.4696 465.329 57.8862 465.329 61.1084C465.329 64.2155 464.35 66.6321 462.394 68.3583C460.553 70.0845 457.906 70.9476 454.454 70.9476ZM534.52 175.208C532.218 175.208 530.377 174.69 528.996 173.655C527.615 172.619 526.809 171.238 526.579 169.512C526.349 167.786 526.694 165.829 527.615 163.643L574.394 58.6917C575.545 55.9299 576.983 53.9735 578.71 52.8228C580.551 51.672 582.565 51.0966 584.751 51.0966C586.823 51.0966 588.721 51.672 590.448 52.8228C592.289 53.9735 593.785 55.9299 594.936 58.6917L641.715 163.643C642.751 165.829 643.153 167.843 642.923 169.685C642.693 171.411 641.945 172.792 640.679 173.827C639.413 174.748 637.63 175.208 635.328 175.208C632.796 175.208 630.783 174.575 629.286 173.31C627.79 172.044 626.467 170.087 625.316 167.441L613.233 139.477L621.346 144.31H547.811L555.752 139.477L543.841 167.441C542.69 170.202 541.424 172.216 540.043 173.482C538.662 174.633 536.821 175.208 534.52 175.208ZM584.406 72.1559L558.341 133.953L554.025 129.81H614.959L610.989 133.953L584.751 72.1559H584.406ZM671.289 175.208C668.412 175.208 666.168 174.403 664.557 172.792C663.061 171.181 662.313 168.937 662.313 166.06V60.2453C662.313 57.2533 663.061 55.0092 664.557 53.5132C666.168 51.9021 668.412 51.0966 671.289 51.0966C674.166 51.0966 676.353 51.9021 677.849 53.5132C679.46 55.0092 680.265 57.2533 680.265 60.2453V166.06C680.265 168.937 679.517 171.181 678.021 172.792C676.525 174.403 674.281 175.208 671.289 175.208Z" fill="#263238"/>
<path d="M151.36 80.6244C157.49 77.3542 159.878 69.6635 155.752 64.0731C150.651 57.162 144.533 51.0318 137.586 45.9008C127.255 38.2703 115.351 33.0416 102.742 30.5961C90.1338 28.1507 77.1385 28.55 64.7039 31.7649C52.2693 34.9799 40.7089 40.9295 30.8659 49.1799C21.0228 57.4302 13.1451 67.7734 7.80719 79.4551C2.46932 91.1368 -0.194147 103.863 0.011012 116.704C0.216171 129.546 3.28478 142.18 8.99308 153.686C12.8316 161.422 17.7987 168.517 23.7124 174.747C28.4959 179.786 36.4855 178.779 40.7764 173.314V173.314C45.0673 167.849 43.9899 160.007 39.517 154.69C36.3889 150.972 33.7054 146.882 31.5325 142.503C27.4883 134.352 25.3143 125.401 25.1689 116.302C25.0236 107.204 26.9106 98.1885 30.6923 89.9123C34.4741 81.6361 40.0552 74.3082 47.0288 68.463C54.0024 62.6179 62.1926 58.4027 71.0022 56.125C79.8118 53.8473 89.0187 53.5644 97.9515 55.297C106.884 57.0295 115.318 60.7339 122.637 66.1399C126.57 69.0445 130.128 72.4011 133.242 76.1307C137.696 81.4637 145.229 83.8946 151.36 80.6244V80.6244Z" fill="url(#paint0_linear_5_9)"/>
<path d="M21.2576 150.027C15.1272 153.297 12.7396 160.988 16.8655 166.578C21.9663 173.489 28.0844 179.62 35.0315 184.751C45.3625 192.381 57.2663 197.61 69.8749 200.055C82.4834 202.501 95.4787 202.101 107.913 198.886C120.348 195.672 131.908 189.722 141.751 181.472C151.594 173.221 159.472 162.878 164.81 151.196C170.148 139.515 172.811 126.789 172.606 113.947C172.401 101.105 169.332 88.471 163.624 76.9658C159.786 69.2291 154.819 62.1341 148.905 55.9044C144.121 50.8653 136.132 51.8726 131.841 57.3374V57.3374C127.55 62.8022 128.627 70.6444 133.1 75.9613C136.228 79.6796 138.912 83.769 141.085 88.1487C145.129 96.2998 147.303 105.251 147.448 114.349C147.594 123.447 145.707 132.463 141.925 140.739C138.143 149.015 132.562 156.343 125.588 162.188C118.615 168.034 110.425 172.249 101.615 174.526C92.8054 176.804 83.5985 177.087 74.6657 175.354C65.7329 173.622 57.2994 169.918 49.9801 164.512C46.0474 161.607 42.4897 158.25 39.375 154.521C34.9214 149.188 27.3879 146.757 21.2576 150.027V150.027Z" fill="url(#paint1_linear_5_9)"/>
<defs>
<linearGradient id="paint0_linear_5_9" x1="86.3086" y1="29.0172" x2="86.3086" y2="201.634" gradientUnits="userSpaceOnUse">
<stop stop-color="#020887"/>
<stop offset="1" stop-color="#020887" stop-opacity="0"/>
</linearGradient>
<linearGradient id="paint1_linear_5_9" x1="86.3086" y1="201.634" x2="86.3086" y2="29.0171" gradientUnits="userSpaceOnUse">
<stop stop-color="#020887"/>
<stop offset="1" stop-color="#23288B" stop-opacity="0"/>
</linearGradient>
</defs>
</svg>
